<svg width="189" height="266" viewBox="0 0 189 266" fill="none" xmlns="http://www.w3.org/2000/svg">
<path fill-rule="evenodd" clip-rule="evenodd" d="M63.8948 225.519C80.8139 207.043 100.641 179.415 119.347 147.015C138.053 114.615 152.066 83.6305 159.607 59.74C163.381 47.7868 165.517 37.6623 165.833 30.0478C165.991 26.2393 165.691 23.1137 164.948 20.7208C164.207 18.3347 163.052 16.7502 161.54 15.8775C160.029 15.0049 158.079 14.7965 155.642 15.3481C153.198 15.9012 150.342 17.204 147.122 19.2452C140.686 23.3261 132.986 30.2384 124.521 39.4827C107.602 57.9591 87.7743 85.5868 69.0682 117.987C50.3622 150.386 36.3497 181.371 28.8082 205.262C25.035 217.215 22.8987 227.34 22.5827 234.954C22.4246 238.763 22.7248 241.888 23.4676 244.281C24.2084 246.667 25.3638 248.252 26.8753 249.124C28.3868 249.997 30.3367 250.205 32.7735 249.654C35.2172 249.101 38.0741 247.798 41.2934 245.757C47.7297 241.676 55.4297 234.763 63.8948 225.519ZM26.3767 249.988C40.7387 258.28 82.7505 212.401 120.213 147.515C157.675 82.6285 176.401 23.3058 162.039 15.0139C147.677 6.72194 105.665 52.6007 68.203 117.487C30.7409 182.373 12.0146 241.696 26.3767 249.988Z" fill="url(#paint0_linear)"/>
<defs>
<linearGradient id="paint0_linear" x1="239.999" y1="178.674" x2="-12.7446" y2="132.872" gradientUnits="userSpaceOnUse">
<stop offset="0.265391" stop-color="#DE3F3F"/>
<stop offset="1" stop-color="#E2A140"/>
</linearGradient>
</defs>
</svg>
