<svg width="425" height="392" viewBox="0 0 425 392" fill="none" xmlns="http://www.w3.org/2000/svg">
<path opacity="0.3" fill-rule="evenodd" clip-rule="evenodd" d="M145.476 174.572C127.989 174.085 115.946 156.812 121.512 140.202L122.465 137.359C136.851 94.429 160.274 55.0938 191.15 22.014C200.975 11.4873 217.524 11.119 227.807 21.1984L240.937 34.0689C259.773 52.5329 275.02 74.3416 285.9 98.3846L293.83 115.907C299.658 128.785 294.18 143.968 281.479 150.14L275.507 153.042C243.345 168.671 207.898 176.311 172.164 175.315L145.476 174.572ZM122.444 140.515C117.088 156.498 128.677 173.119 145.503 173.588L172.192 174.331C207.768 175.322 243.058 167.716 275.078 152.157L281.05 149.255C293.272 143.316 298.543 128.705 292.935 116.313L285.005 98.791C274.175 74.859 258.999 53.151 240.249 34.7723L227.119 21.9018C217.231 12.2088 201.316 12.5629 191.868 22.6861C161.088 55.663 137.738 94.8758 123.396 137.672L122.444 140.515Z" fill="url(#paint0_linear)"/>
<path opacity="0.42" fill-rule="evenodd" clip-rule="evenodd" d="M159.773 171.631C142.961 166.256 136.083 146.164 146.063 131.586L148.683 127.761C174.758 89.6762 209.094 57.4353 248.623 33.6687C261.304 26.0444 277.917 30.2849 285.224 43.1802L295.344 61.0418C308.317 83.9394 316.948 109.044 320.8 135.087L323.989 156.649C326.083 170.808 316.52 184.056 302.44 186.503L293.978 187.974C258.612 194.12 222.287 191.62 188.092 180.686L159.773 171.631ZM147.36 132.477C137.975 146.184 144.443 165.076 160.251 170.131L188.57 179.186C222.524 190.043 258.593 192.525 293.709 186.422L302.171 184.951C315.411 182.65 324.402 170.193 322.433 156.88L319.244 135.318C315.421 109.467 306.854 84.5476 293.976 61.819L283.856 43.9574C276.992 31.8432 261.367 27.843 249.432 35.0189C210.094 58.6702 175.926 90.755 149.979 128.651L147.36 132.477Z" fill="url(#paint1_linear)"/>
<path opacity="0.54" fill-rule="evenodd" clip-rule="evenodd" d="M174.783 173.481C159.991 163.558 158.899 142.171 172.604 130.789L178.282 126.072C213.896 96.4944 255.464 74.965 300.147 62.955L302.799 62.2424C317.265 58.3541 332.087 67.176 335.592 81.7613L340.985 104.203C347.122 129.737 348.506 156.185 345.068 182.221L341.88 206.36C339.984 220.722 326.988 230.942 312.608 229.38L302.12 228.24C266.294 224.348 231.941 211.823 201.999 191.738L174.783 173.481ZM173.984 132.455C161.391 142.914 162.395 162.564 175.986 171.682L203.202 189.939C232.854 209.83 266.874 222.233 302.354 226.087L312.841 227.227C326.054 228.662 337.994 219.272 339.737 206.076L342.924 181.937C346.327 156.165 344.958 129.985 338.883 104.71L333.49 82.268C330.269 68.8667 316.651 60.761 303.359 64.3336L300.708 65.0463C256.325 76.9755 215.036 98.3601 179.662 127.739L173.984 132.455Z" fill="url(#paint2_linear)"/>
<path opacity="0.66" fill-rule="evenodd" clip-rule="evenodd" d="M189.193 180.304C177.628 166.541 182.504 145.509 198.941 138.259L208.208 134.172C250.688 115.434 296.714 106.125 343.125 106.884L348.019 106.964C363.177 107.211 375.142 119.937 374.48 135.106L373.362 160.703C372.219 186.882 366.284 212.627 355.854 236.659L345.148 261.323C339.313 274.768 323.822 281.081 310.272 275.535L298.683 270.793C265.196 257.089 235.531 235.447 212.237 207.727L189.193 180.304ZM200.05 140.781C185.292 147.29 180.915 166.172 191.298 178.529L214.342 205.952C237.349 233.331 266.649 254.707 299.724 268.242L311.312 272.984C323.478 277.963 337.386 272.295 342.625 260.224L353.33 235.56C363.626 211.838 369.484 186.424 370.613 160.583L371.731 134.985C372.325 121.367 361.583 109.942 347.975 109.719L343.08 109.639C297.066 108.887 251.434 118.117 209.317 136.694L200.05 140.781Z" fill="url(#paint3_linear)"/>
<path opacity="0.78" fill-rule="evenodd" clip-rule="evenodd" d="M201.642 191.917C194.275 175.336 204.837 156.31 222.786 153.827L235.539 152.062C281.667 145.68 328.627 149.393 373.183 162.946L379.934 165C394.611 169.464 402.709 185.188 397.831 199.755L388.893 226.448C380.591 251.24 367.828 274.301 351.236 294.49L332.56 317.214C323.147 328.667 306.32 330.48 294.69 321.296L283.306 312.306C254.795 289.789 232.183 260.661 217.422 227.436L201.642 191.917ZM223.243 157.142C207.497 159.32 198.232 176.011 204.694 190.556L220.475 226.076C235.015 258.804 257.29 287.497 285.375 309.678L296.758 318.668C306.961 326.725 321.723 325.134 329.98 315.087L348.656 292.363C364.99 272.489 377.553 249.789 385.725 225.384L394.663 198.691C398.942 185.912 391.839 172.118 378.963 168.202L372.212 166.148C328.119 152.736 281.645 149.061 235.997 155.377L223.243 157.142Z" fill="url(#paint4_linear)"/>
<path opacity="0.9" fill-rule="evenodd" clip-rule="evenodd" d="M210.823 207.755C208.312 189.621 223.828 174.121 241.926 176.682L257.4 178.872C303.649 185.417 347.925 201.951 387.162 227.33L394.911 232.343C407.949 240.775 411.447 258.333 402.64 271.131L385.256 296.395C370.468 317.884 351.89 336.491 330.435 351.302L304.156 369.442C291.819 377.958 274.947 375.022 266.201 362.838L256.58 349.434C235.31 319.801 221.577 285.42 216.572 249.271L210.823 207.755ZM241.377 180.58C225.863 178.385 212.564 191.67 214.717 207.214L220.465 248.73C225.383 284.245 238.875 318.023 259.771 347.136L269.392 360.54C276.889 370.983 291.351 373.5 301.925 366.201L328.204 348.06C349.266 333.522 367.503 315.256 382.019 294.161L399.403 268.897C406.952 257.927 403.954 242.878 392.779 235.65L385.03 230.638C346.271 205.568 302.535 189.235 256.85 182.77L241.377 180.58Z" fill="url(#paint5_linear)"/>
<circle cx="2.15789" cy="132.158" r="2.15789" fill="#E2A140"/>
<circle cx="28.0527" cy="132.158" r="2.15789" fill="#E2A140"/>
<circle cx="53.9474" cy="132.158" r="2.15789" fill="#E2A140"/>
<circle cx="79.8422" cy="132.158" r="2.15789" fill="#E2A140"/>
<circle cx="2.15789" cy="158.052" r="2.15789" fill="#E2A140"/>
<circle cx="28.0527" cy="158.052" r="2.15789" fill="#E2A140"/>
<circle cx="53.9474" cy="158.052" r="2.15789" fill="#E2A140"/>
<circle cx="79.8422" cy="158.052" r="2.15789" fill="#E2A140"/>
<circle cx="2.15789" cy="183.947" r="2.15789" fill="#E2A140"/>
<circle cx="28.0527" cy="183.947" r="2.15789" fill="#E2A140"/>
<circle cx="53.9474" cy="183.947" r="2.15789" fill="#E2A140"/>
<circle cx="79.8422" cy="183.947" r="2.15789" fill="#E2A140"/>
<circle cx="2.15789" cy="209.842" r="2.15789" fill="#E2A140"/>
<circle cx="28.0527" cy="209.842" r="2.15789" fill="#E2A140"/>
<circle cx="53.9474" cy="209.842" r="2.15789" fill="#E2A140"/>
<circle cx="79.8422" cy="209.842" r="2.15789" fill="#E2A140"/>
<circle cx="115.158" cy="250.158" r="2.15789" fill="#E24040"/>
<circle cx="141.053" cy="250.158" r="2.15789" fill="#E24040"/>
<circle cx="166.947" cy="250.158" r="2.15789" fill="#E24040"/>
<circle cx="192.842" cy="250.158" r="2.15789" fill="#E24040"/>
<circle cx="115.158" cy="276.053" r="2.15789" fill="#E24040"/>
<circle cx="141.053" cy="276.053" r="2.15789" fill="#E24040"/>
<circle cx="166.947" cy="276.053" r="2.15789" fill="#E24040"/>
<circle cx="192.842" cy="276.053" r="2.15789" fill="#E24040"/>
<circle cx="115.158" cy="301.947" r="2.15789" fill="#E24040"/>
<circle cx="141.053" cy="301.947" r="2.15789" fill="#E24040"/>
<circle cx="166.947" cy="301.947" r="2.15789" fill="#E24040"/>
<circle cx="192.842" cy="301.947" r="2.15789" fill="#E24040"/>
<circle cx="115.158" cy="327.842" r="2.15789" fill="#E24040"/>
<circle cx="141.053" cy="327.842" r="2.15789" fill="#E24040"/>
<circle cx="166.947" cy="327.842" r="2.15789" fill="#E24040"/>
<circle cx="192.842" cy="327.842" r="2.15789" fill="#E24040"/>
<defs>
<linearGradient id="paint0_linear" x1="116.226" y1="171.413" x2="261.948" y2="69.5371" gradientUnits="userSpaceOnUse">
<stop stop-color="#E24040"/>
<stop offset="1" stop-color="#E2A140"/>
</linearGradient>
<linearGradient id="paint1_linear" x1="132.91" y1="160.218" x2="305.17" y2="100.997" gradientUnits="userSpaceOnUse">
<stop stop-color="#E24040"/>
<stop offset="1" stop-color="#E2A140"/>
</linearGradient>
<linearGradient id="paint2_linear" x1="152.547" y1="154.91" x2="338.833" y2="145.163" gradientUnits="userSpaceOnUse">
<stop stop-color="#E24040"/>
<stop offset="1" stop-color="#E2A140"/>
</linearGradient>
<linearGradient id="paint3_linear" x1="173.401" y1="156.258" x2="359.492" y2="199.153" gradientUnits="userSpaceOnUse">
<stop stop-color="#E24040"/>
<stop offset="1" stop-color="#E2A140"/>
</linearGradient>
<linearGradient id="paint4_linear" x1="193.542" y1="164.515" x2="364.543" y2="259.153" gradientUnits="userSpaceOnUse">
<stop stop-color="#E24040"/>
<stop offset="1" stop-color="#E2A140"/>
</linearGradient>
<linearGradient id="paint5_linear" x1="211" y1="179.371" x2="352.492" y2="320.641" gradientUnits="userSpaceOnUse">
<stop stop-color="#E24040"/>
<stop offset="1" stop-color="#E2A140"/>
</linearGradient>
</defs>
</svg>
