<svg width="73" height="19" viewBox="0 0 73 19" fill="none" xmlns="http://www.w3.org/2000/svg">
<path d="M13.8961 1.20003H0.528076V4.60803H5.42408V18H8.97608V4.60803H13.8961V1.20003Z" fill="white"/>
<path d="M16.7551 0.504028C15.6271 0.504028 14.6911 1.44003 14.6911 2.54403C14.6911 3.67203 15.6271 4.60803 16.7551 4.60803C17.8831 4.60803 18.8191 3.67203 18.8191 2.54403C18.8191 1.44003 17.8831 0.504028 16.7551 0.504028ZM15.0751 6.21603V18H18.4591V6.21603H15.0751Z" fill="white"/>
<path d="M27.4641 5.97603C26.1441 5.97603 24.8961 6.60003 24.2481 7.60803V6.21603H20.8641V18H24.2481V10.68C24.7281 9.86403 25.6641 9.33603 26.6001 9.33603C27.9921 9.33603 28.8801 10.272 28.8801 11.904V18H32.2641V11.328C32.2641 8.01603 30.4401 5.97603 27.4641 5.97603Z" fill="white"/>
<path d="M43.1174 1.20003V7.60803C42.5414 6.64803 41.1014 5.97603 39.6374 5.97603C36.5654 5.97603 34.1414 8.68803 34.1414 12.096C34.1414 15.504 36.5654 18.24 39.6374 18.24C41.1254 18.24 42.5414 17.568 43.1174 16.608V18H46.5014V1.20003H43.1174ZM40.3814 15.024C38.7254 15.024 37.4534 13.776 37.4534 12.096C37.4534 10.416 38.7254 9.16803 40.3814 9.16803C41.5574 9.16803 42.6134 9.81603 43.1174 10.68V13.56C42.6134 14.4 41.5574 15.024 40.3814 15.024Z" fill="white"/>
<path d="M60.0588 11.592C60.0588 8.44803 57.5628 5.97603 54.3708 5.97603C50.9388 5.97603 48.2508 8.61603 48.2508 12.048C48.2508 15.552 50.9868 18.24 54.4428 18.24C56.8908 18.24 58.8588 17.328 59.7228 15.768L57.0828 14.16C56.6748 14.88 55.5708 15.36 54.5148 15.36C52.9068 15.36 51.8028 14.52 51.4908 12.912H59.9628C60.0348 12.456 60.0588 12 60.0588 11.592ZM51.5388 10.752C51.8508 9.48003 52.7868 8.71203 54.2028 8.71203C55.4508 8.71203 56.5308 9.57603 56.6748 10.752H51.5388Z" fill="white"/>
<path d="M72.7463 6.21603H69.0503L66.4343 13.392L63.7703 6.21603H60.0983L64.9943 18H67.8743L72.7463 6.21603Z" fill="white"/>
</svg>
